<?xml version="1.0" standalone="no"?>
<!DOCTYPE svg PUBLIC "-//W3C//DTD SVG 20010904//EN"
 "http://www.w3.org/TR/2001/REC-SVG-20010904/DTD/svg10.dtd">
<svg version="1.0" xmlns="http://www.w3.org/2000/svg"
 width="256.000000pt" height="256.000000pt" viewBox="0 0 256.000000 256.000000"
 preserveAspectRatio="xMidYMid meet">
<metadata>
Created by potrace 1.11, written by Peter Selinger 2001-2013
</metadata>
<g transform="translate(0.000000,256.000000) scale(0.100000,-0.100000)"
fill="#000000" stroke="none">
<path d="M184 2465 c-53 -26 -87 -69 -101 -125 -5 -19 -9 -498 -8 -1070 1
-1139 -3 -1059 62 -1124 58 -59 2 -56 1144 -56 1152 0 1082 -4 1145 58 61 61
58 0 59 1127 1 805 -1 1040 -11 1074 -15 51 -64 106 -113 127 -28 12 -198 14
-1080 14 l-1047 0 -50 -25z"/>
</g>
</svg>
